G75*
%MOIN*%
%OFA0B0*%
%FSLAX25Y25*%
%IPPOS*%
%LPD*%
%AMOC8*
5,1,8,0,0,1.08239X$1,22.5*
%
%ADD10R,0.04731X0.07487*%
%ADD11R,0.06306X0.05518*%
%ADD12R,0.07487X0.06699*%
%ADD13R,0.05518X0.06306*%
%ADD14R,0.04534X0.05518*%
%ADD15R,0.04337X0.05124*%
%ADD16R,0.04337X0.04337*%
%ADD17C,0.09061*%
%ADD18C,0.03550*%
%ADD19C,0.05600*%
%ADD20R,0.04337X0.04731*%
%ADD21R,0.04731X0.04337*%
%ADD22C,0.03943*%
%ADD23R,0.08274X0.16935*%
%ADD24R,0.05124X0.09061*%
%ADD25C,0.06000*%
%ADD26OC8,0.06000*%
%ADD27C,0.08274*%
%ADD28C,0.12998*%
%ADD29C,0.13200*%
%ADD30R,0.02800X0.18500*%
%ADD31R,0.10200X0.15800*%
D10*
X0162180Y0176400D03*
X0174385Y0176400D03*
D11*
X0182382Y0177540D03*
X0182382Y0170060D03*
X0192882Y0170060D03*
X0192882Y0177540D03*
X0204382Y0177440D03*
X0204382Y0169960D03*
X0215982Y0180660D03*
X0215982Y0188140D03*
X0198682Y0189760D03*
X0198682Y0197240D03*
X0187682Y0197240D03*
X0187682Y0189760D03*
X0177282Y0189860D03*
X0177282Y0197340D03*
X0168882Y0197340D03*
X0168882Y0189860D03*
X0160582Y0189860D03*
X0160582Y0197340D03*
X0154482Y0178040D03*
X0154482Y0170560D03*
X0193082Y0138540D03*
X0193082Y0131060D03*
X0237182Y0122040D03*
X0237182Y0114560D03*
X0245982Y0114560D03*
X0245982Y0122040D03*
X0182782Y0068740D03*
X0182782Y0061260D03*
X0173682Y0061260D03*
X0173682Y0068740D03*
X0164582Y0068740D03*
X0164582Y0061260D03*
X0155182Y0061360D03*
X0155182Y0068840D03*
X0192882Y0224560D03*
X0192882Y0232040D03*
D12*
X0118482Y0157312D03*
X0118482Y0146288D03*
D13*
X0127242Y0146800D03*
X0134723Y0146800D03*
X0134723Y0138600D03*
X0127242Y0138600D03*
X0127342Y0130300D03*
X0134823Y0130300D03*
X0145442Y0158500D03*
X0152923Y0158500D03*
X0176642Y0121100D03*
X0184123Y0121100D03*
X0201842Y0085800D03*
X0209323Y0085800D03*
X0209323Y0077700D03*
X0201842Y0077700D03*
X0202042Y0064100D03*
X0209523Y0064100D03*
X0209523Y0055200D03*
X0202042Y0055200D03*
X0257642Y0117900D03*
X0265123Y0117900D03*
X0265023Y0127200D03*
X0257542Y0127200D03*
X0164423Y0215400D03*
X0156942Y0215400D03*
X0211442Y0224700D03*
X0218923Y0224700D03*
X0278542Y0307500D03*
X0286023Y0307500D03*
X0032123Y0254900D03*
X0024642Y0254900D03*
D14*
X0126241Y0165928D03*
X0133524Y0165928D03*
X0133524Y0156872D03*
X0126241Y0156872D03*
D15*
X0151482Y0185569D03*
X0151482Y0194231D03*
X0170282Y0109431D03*
X0170282Y0100769D03*
D16*
X0185982Y0093700D03*
X0193856Y0093700D03*
D17*
X0071575Y0171653D03*
X0016456Y0285826D03*
D18*
X0254960Y0323732D03*
X0286456Y0323732D03*
D19*
X0330282Y0294700D02*
X0335482Y0294700D01*
X0360282Y0294700D02*
X0365482Y0294700D01*
X0328382Y0196800D02*
X0323182Y0196800D01*
X0298382Y0196800D02*
X0293182Y0196800D01*
D20*
X0355482Y0193846D03*
X0355482Y0187154D03*
X0356382Y0278354D03*
X0356382Y0285046D03*
D21*
X0123629Y0286600D03*
X0116936Y0286600D03*
D22*
X0115472Y0031000D03*
X0101693Y0031000D03*
D23*
X0138198Y0021384D03*
X0190167Y0021384D03*
D24*
X0175993Y0043353D03*
X0168119Y0043353D03*
X0160245Y0043353D03*
X0152371Y0043353D03*
D25*
X0107182Y0139000D03*
D26*
X0097182Y0139000D03*
X0097182Y0149000D03*
X0107182Y0149000D03*
X0107182Y0159000D03*
X0097182Y0159000D03*
X0097182Y0169000D03*
X0097182Y0179000D03*
X0107182Y0179000D03*
X0107182Y0169000D03*
D27*
X0345778Y0085537D02*
X0345778Y0077663D01*
X0369793Y0077663D02*
X0369793Y0085537D01*
X0361919Y0100498D02*
X0354045Y0100498D01*
D28*
X0027782Y0029000D03*
X0377582Y0031700D03*
X0377382Y0349300D03*
X0029282Y0349100D03*
D29*
X0222382Y0021600D03*
X0222282Y0021400D03*
X0272282Y0021400D03*
X0272382Y0021600D03*
D30*
X0272582Y0100100D03*
X0265382Y0100100D03*
X0261382Y0100100D03*
X0257382Y0100100D03*
X0253382Y0100100D03*
X0249382Y0100100D03*
X0245382Y0100100D03*
X0241382Y0100100D03*
X0237382Y0100100D03*
X0233382Y0100100D03*
X0229382Y0100100D03*
X0222182Y0100100D03*
D31*
X0209882Y0021600D03*
X0284882Y0021600D03*
M02*
