G75*
%MOIN*%
%OFA0B0*%
%FSLAX25Y25*%
%IPPOS*%
%LPD*%
%AMOC8*
5,1,8,0,0,1.08239X$1,22.5*
%
%ADD10R,0.05118X0.05906*%
%ADD11R,0.05000X0.02500*%
%ADD12R,0.05906X0.05118*%
%ADD13R,0.07087X0.06299*%
%ADD14R,0.04724X0.03937*%
%ADD15R,0.04724X0.01181*%
%ADD16R,0.01181X0.04724*%
%ADD17R,0.04724X0.04724*%
%ADD18R,0.14567X0.05906*%
%ADD19R,0.09449X0.09449*%
%ADD20R,0.07008X0.08504*%
%ADD21R,0.03937X0.04724*%
%ADD22R,0.03937X0.03937*%
%ADD23R,0.03937X0.07874*%
%ADD24R,0.07874X0.03937*%
%ADD25R,0.00984X0.07087*%
%ADD26R,0.02200X0.07800*%
%ADD27R,0.04200X0.08600*%
%ADD28R,0.03150X0.07087*%
%ADD29R,0.05512X0.07874*%
%ADD30R,0.05512X0.08661*%
%ADD31R,0.04134X0.01772*%
%ADD32R,0.11575X0.14094*%
%ADD33R,0.11024X0.09449*%
%ADD34R,0.04331X0.03937*%
%ADD35R,0.03937X0.04331*%
%ADD36R,0.11024X0.14961*%
%ADD37R,0.08858X0.17717*%
%ADD38R,0.01200X0.03900*%
%ADD39R,0.09843X0.08661*%
%ADD40R,0.01969X0.07874*%
%ADD41R,0.07874X0.16535*%
%ADD42R,0.04724X0.08661*%
%ADD43R,0.02362X0.06693*%
%ADD44R,0.03937X0.10630*%
%ADD45R,0.02400X0.18100*%
%ADD46R,0.09800X0.15400*%
D10*
X0014842Y0091100D03*
X0022323Y0091100D03*
X0121842Y0121800D03*
X0129323Y0121800D03*
X0127442Y0138500D03*
X0134923Y0138500D03*
X0134723Y0155000D03*
X0127242Y0155000D03*
X0186542Y0112400D03*
X0194023Y0112400D03*
X0194023Y0103900D03*
X0186542Y0103900D03*
X0179523Y0084700D03*
X0172042Y0084700D03*
X0223642Y0137900D03*
X0231123Y0137900D03*
X0213323Y0146800D03*
X0205842Y0146800D03*
X0240742Y0176700D03*
X0248223Y0176700D03*
X0268242Y0174800D03*
X0275723Y0174800D03*
X0266323Y0210700D03*
X0258842Y0210700D03*
X0252923Y0226900D03*
X0245442Y0226900D03*
X0131923Y0248200D03*
X0124442Y0248200D03*
X0124342Y0256600D03*
X0131823Y0256600D03*
X0112323Y0256600D03*
X0104842Y0256600D03*
X0104742Y0248200D03*
X0112223Y0248200D03*
X0114542Y0216700D03*
X0122023Y0216700D03*
X0108523Y0206200D03*
X0101042Y0206200D03*
X0370942Y0108500D03*
X0378423Y0108500D03*
D11*
X0271682Y0186100D03*
X0271682Y0191100D03*
X0271682Y0196100D03*
X0271682Y0201100D03*
X0251682Y0201100D03*
X0251682Y0196100D03*
X0251682Y0191100D03*
X0251682Y0186100D03*
D12*
X0238482Y0208455D03*
X0238482Y0215935D03*
X0198282Y0264960D03*
X0198282Y0272440D03*
X0303382Y0185140D03*
X0303382Y0177660D03*
X0259482Y0159940D03*
X0259482Y0152460D03*
X0244182Y0154340D03*
X0244182Y0146860D03*
X0235882Y0146860D03*
X0235882Y0154340D03*
X0159482Y0130640D03*
X0159482Y0123160D03*
X0150382Y0122160D03*
X0150382Y0129640D03*
X0145382Y0090840D03*
X0145382Y0083360D03*
X0118682Y0060340D03*
X0118682Y0052860D03*
X0102782Y0053460D03*
X0102782Y0060940D03*
X0192582Y0070660D03*
X0192582Y0078140D03*
X0307082Y0054140D03*
X0307082Y0046660D03*
X0316782Y0057660D03*
X0316782Y0065140D03*
X0326882Y0065240D03*
X0326882Y0057760D03*
X0349682Y0054040D03*
X0349682Y0046560D03*
X0394282Y0301960D03*
X0394282Y0309440D03*
D13*
X0238818Y0283969D03*
X0144582Y0149412D03*
X0144582Y0138388D03*
D14*
X0267752Y0167700D03*
X0276413Y0167700D03*
D15*
X0230502Y0167788D03*
X0230502Y0165820D03*
X0230502Y0163851D03*
X0230502Y0169757D03*
X0230502Y0171725D03*
X0230502Y0173694D03*
X0230502Y0175662D03*
X0230502Y0177631D03*
X0230502Y0179599D03*
X0230502Y0181568D03*
X0230502Y0183536D03*
X0230502Y0185505D03*
X0230502Y0187473D03*
X0230502Y0189442D03*
X0230502Y0191410D03*
X0230502Y0193379D03*
X0230502Y0195347D03*
X0230502Y0197316D03*
X0230502Y0199284D03*
X0230502Y0201253D03*
X0230502Y0203221D03*
X0230502Y0205190D03*
X0230502Y0207158D03*
X0230502Y0209127D03*
X0230502Y0211095D03*
X0230502Y0213064D03*
X0230502Y0215032D03*
X0230502Y0217001D03*
X0230502Y0218969D03*
X0230502Y0220938D03*
X0230502Y0222906D03*
X0230502Y0224875D03*
X0230502Y0226843D03*
X0230502Y0228812D03*
X0230502Y0230780D03*
X0230502Y0232749D03*
X0145463Y0232749D03*
X0145463Y0230780D03*
X0145463Y0228812D03*
X0145463Y0226843D03*
X0145463Y0224875D03*
X0145463Y0222906D03*
X0145463Y0220938D03*
X0145463Y0218969D03*
X0145463Y0217001D03*
X0145463Y0215032D03*
X0145463Y0213064D03*
X0145463Y0211095D03*
X0145463Y0209127D03*
X0145463Y0207158D03*
X0145463Y0205190D03*
X0145463Y0203221D03*
X0145463Y0201253D03*
X0145463Y0199284D03*
X0145463Y0197316D03*
X0145463Y0195347D03*
X0145463Y0193379D03*
X0145463Y0191410D03*
X0145463Y0189442D03*
X0145463Y0187473D03*
X0145463Y0185505D03*
X0145463Y0183536D03*
X0145463Y0181568D03*
X0145463Y0179599D03*
X0145463Y0177631D03*
X0145463Y0175662D03*
X0145463Y0173694D03*
X0145463Y0171725D03*
X0145463Y0169757D03*
X0145463Y0167788D03*
X0145463Y0165820D03*
X0145463Y0163851D03*
D16*
X0153534Y0155780D03*
X0155502Y0155780D03*
X0157471Y0155780D03*
X0159439Y0155780D03*
X0161408Y0155780D03*
X0163376Y0155780D03*
X0165345Y0155780D03*
X0167313Y0155780D03*
X0169282Y0155780D03*
X0171250Y0155780D03*
X0173219Y0155780D03*
X0175187Y0155780D03*
X0177156Y0155780D03*
X0179124Y0155780D03*
X0181093Y0155780D03*
X0183061Y0155780D03*
X0185030Y0155780D03*
X0186998Y0155780D03*
X0188967Y0155780D03*
X0190935Y0155780D03*
X0192904Y0155780D03*
X0194872Y0155780D03*
X0196841Y0155780D03*
X0198809Y0155780D03*
X0200778Y0155780D03*
X0202746Y0155780D03*
X0204715Y0155780D03*
X0206683Y0155780D03*
X0208652Y0155780D03*
X0210620Y0155780D03*
X0212589Y0155780D03*
X0214557Y0155780D03*
X0216526Y0155780D03*
X0218494Y0155780D03*
X0220463Y0155780D03*
X0222431Y0155780D03*
X0222431Y0240820D03*
X0220463Y0240820D03*
X0218494Y0240820D03*
X0216526Y0240820D03*
X0214557Y0240820D03*
X0212589Y0240820D03*
X0210620Y0240820D03*
X0208652Y0240820D03*
X0206683Y0240820D03*
X0204715Y0240820D03*
X0202746Y0240820D03*
X0200778Y0240820D03*
X0198809Y0240820D03*
X0196841Y0240820D03*
X0194872Y0240820D03*
X0192904Y0240820D03*
X0190935Y0240820D03*
X0188967Y0240820D03*
X0186998Y0240820D03*
X0185030Y0240820D03*
X0183061Y0240820D03*
X0181093Y0240820D03*
X0179124Y0240820D03*
X0177156Y0240820D03*
X0175187Y0240820D03*
X0173219Y0240820D03*
X0171250Y0240820D03*
X0169282Y0240820D03*
X0167313Y0240820D03*
X0165345Y0240820D03*
X0163376Y0240820D03*
X0161408Y0240820D03*
X0159439Y0240820D03*
X0157471Y0240820D03*
X0155502Y0240820D03*
X0153534Y0240820D03*
D17*
X0084082Y0280966D03*
X0084082Y0289234D03*
X0204749Y0138200D03*
X0213016Y0138200D03*
X0303282Y0160366D03*
X0303282Y0168634D03*
X0386649Y0108300D03*
X0394916Y0108300D03*
X0394282Y0319366D03*
X0394282Y0327634D03*
X0022616Y0079000D03*
X0014349Y0079000D03*
D18*
X0329982Y0082332D03*
X0329982Y0098868D03*
D19*
X0307344Y0115600D03*
X0290021Y0115600D03*
X0373121Y0056400D03*
X0390444Y0056400D03*
D20*
X0306475Y0132000D03*
X0290451Y0132000D03*
D21*
X0253382Y0136869D03*
X0253382Y0145531D03*
D22*
X0143756Y0120500D03*
X0135882Y0120500D03*
D23*
X0181032Y0258914D03*
X0181032Y0282536D03*
D24*
X0192643Y0136175D03*
X0169021Y0136175D03*
D25*
X0061732Y0266141D03*
X0059763Y0266141D03*
X0057795Y0266141D03*
X0055826Y0266141D03*
X0053858Y0266141D03*
X0051889Y0266141D03*
X0049921Y0266141D03*
X0047952Y0266141D03*
X0045984Y0266141D03*
X0044015Y0266141D03*
X0042047Y0266141D03*
X0040078Y0266141D03*
X0038110Y0266141D03*
X0036141Y0266141D03*
X0034173Y0266141D03*
X0034173Y0281889D03*
X0036141Y0281889D03*
X0038110Y0281889D03*
X0040078Y0281889D03*
X0042047Y0281889D03*
X0044015Y0281889D03*
X0045984Y0281889D03*
X0047952Y0281889D03*
X0049921Y0281889D03*
X0051889Y0281889D03*
X0053858Y0281889D03*
X0055826Y0281889D03*
X0057795Y0281889D03*
X0059763Y0281889D03*
X0061732Y0281889D03*
D26*
X0097282Y0111500D03*
X0102282Y0111500D03*
X0107282Y0111500D03*
X0112282Y0111500D03*
X0117282Y0111500D03*
X0122282Y0111500D03*
X0127282Y0111500D03*
X0132282Y0111500D03*
X0132282Y0074500D03*
X0127282Y0074500D03*
X0122282Y0074500D03*
X0117282Y0074500D03*
X0112282Y0074500D03*
X0107282Y0074500D03*
X0102282Y0074500D03*
X0097282Y0074500D03*
D27*
X0077345Y0098000D03*
X0071440Y0098000D03*
X0065534Y0098000D03*
X0059629Y0098000D03*
X0053723Y0098000D03*
X0047818Y0098000D03*
X0041912Y0098000D03*
X0036007Y0098000D03*
X0036007Y0151150D03*
X0041912Y0151150D03*
X0047818Y0151150D03*
X0053723Y0151150D03*
X0059629Y0151150D03*
X0065534Y0151150D03*
X0071440Y0151150D03*
X0077345Y0151150D03*
D28*
X0257125Y0282000D03*
X0261456Y0282000D03*
X0265786Y0282000D03*
X0270117Y0282000D03*
X0274448Y0282000D03*
X0278778Y0282000D03*
X0283109Y0282000D03*
X0287440Y0282000D03*
X0291771Y0282000D03*
D29*
X0297479Y0284362D03*
D30*
X0298070Y0323142D03*
X0233897Y0323142D03*
D31*
X0347486Y0235457D03*
X0347486Y0232898D03*
X0347486Y0230339D03*
X0347486Y0227780D03*
X0347486Y0225220D03*
X0347486Y0222661D03*
X0347486Y0220102D03*
X0347486Y0217543D03*
X0369279Y0217543D03*
X0369279Y0220102D03*
X0369279Y0222661D03*
X0369279Y0225220D03*
X0369279Y0227780D03*
X0369279Y0230339D03*
X0369279Y0232898D03*
X0369279Y0235457D03*
X0367079Y0145457D03*
X0367079Y0142898D03*
X0367079Y0140339D03*
X0367079Y0137780D03*
X0367079Y0135220D03*
X0367079Y0132661D03*
X0367079Y0130102D03*
X0367079Y0127543D03*
X0345286Y0127543D03*
X0345286Y0130102D03*
X0345286Y0132661D03*
X0345286Y0135220D03*
X0345286Y0137780D03*
X0345286Y0140339D03*
X0345286Y0142898D03*
X0345286Y0145457D03*
D32*
X0356182Y0136500D03*
X0358382Y0226500D03*
D33*
X0321082Y0214698D03*
X0321082Y0239502D03*
X0321482Y0257598D03*
X0321482Y0282402D03*
X0319582Y0185102D03*
X0319582Y0160298D03*
X0319482Y0147902D03*
X0319482Y0123098D03*
D34*
X0353882Y0121546D03*
X0353882Y0114854D03*
X0375036Y0126100D03*
X0381729Y0126100D03*
X0384529Y0134500D03*
X0377836Y0134500D03*
X0379836Y0159300D03*
X0386529Y0159300D03*
X0391282Y0193254D03*
X0391282Y0199946D03*
X0383529Y0215900D03*
X0376836Y0215900D03*
X0380936Y0224100D03*
X0387629Y0224100D03*
X0386129Y0248500D03*
X0379436Y0248500D03*
X0143929Y0288600D03*
X0137236Y0288600D03*
X0136036Y0271500D03*
X0142729Y0271500D03*
X0101429Y0292900D03*
X0094736Y0292900D03*
D35*
X0130082Y0301654D03*
X0130082Y0308346D03*
X0306082Y0229546D03*
X0306082Y0222854D03*
X0334382Y0218646D03*
X0334382Y0211954D03*
X0376836Y0232300D03*
X0383529Y0232300D03*
X0386129Y0240300D03*
X0379436Y0240300D03*
X0391182Y0212346D03*
X0391182Y0205654D03*
X0386329Y0150900D03*
X0379636Y0150900D03*
X0378036Y0142600D03*
X0384729Y0142600D03*
X0393982Y0135546D03*
X0393982Y0128854D03*
X0335482Y0129546D03*
X0335482Y0122854D03*
X0297282Y0144454D03*
X0297282Y0151146D03*
D36*
X0335815Y0165500D03*
X0364949Y0165500D03*
X0366449Y0254200D03*
X0337315Y0254200D03*
D37*
X0337663Y0278000D03*
X0364301Y0278000D03*
X0364701Y0189700D03*
X0338063Y0189700D03*
D38*
X0129239Y0270913D03*
X0126680Y0270913D03*
X0124121Y0270913D03*
X0121562Y0270913D03*
X0119003Y0270913D03*
X0116444Y0270913D03*
X0113885Y0270913D03*
X0111326Y0270913D03*
X0111326Y0293887D03*
X0113885Y0293887D03*
X0116444Y0293887D03*
X0119003Y0293887D03*
X0121562Y0293887D03*
X0124121Y0293887D03*
X0126680Y0293887D03*
X0129239Y0293887D03*
D39*
X0092047Y0018008D03*
X0092047Y0038874D03*
X0125118Y0038874D03*
X0125118Y0018008D03*
D40*
X0114882Y0039858D03*
X0111732Y0039858D03*
X0108582Y0039858D03*
X0105433Y0039858D03*
X0102283Y0039858D03*
D41*
X0138198Y0021384D03*
X0190167Y0021384D03*
X0303698Y0021784D03*
X0355667Y0021784D03*
D42*
X0341493Y0043753D03*
X0333619Y0043753D03*
X0325745Y0043753D03*
X0317871Y0043753D03*
X0175993Y0043353D03*
X0168119Y0043353D03*
X0160245Y0043353D03*
X0152371Y0043353D03*
D43*
X0121625Y0313687D03*
X0116704Y0313687D03*
X0111782Y0313687D03*
X0106861Y0313687D03*
X0101940Y0313687D03*
D44*
X0094656Y0326679D03*
X0128908Y0326679D03*
D45*
X0222082Y0099900D03*
X0229282Y0099900D03*
X0233282Y0099900D03*
X0237282Y0099900D03*
X0241282Y0099900D03*
X0245282Y0099900D03*
X0249282Y0099900D03*
X0253282Y0099900D03*
X0257282Y0099900D03*
X0261282Y0099900D03*
X0265282Y0099900D03*
X0272482Y0099900D03*
D46*
X0284782Y0021400D03*
X0209782Y0021400D03*
M02*
