%
M48
M72
T01C0.02362
T02C0.03150
T03C0.03200
T04C0.03543
T05C0.03600
T06C0.03937
T07C0.08661
T08C0.12598
T09C0.12800
%
T01
X57782Y28300
X112182Y72200
X112182Y88400
X136182Y108300
X147582Y115800
X150082Y108700
X160482Y108700
X171282Y115500
X182882Y107700
X180582Y100600
X185182Y84600
X173782Y75000
X155082Y82400
X163882Y50800
X176282Y34100
X167982Y29500
X160082Y28900
X201382Y21700
X218382Y39700
X233882Y69500
X241382Y78800
X247882Y87900
X265882Y84400
X277982Y73700
X277382Y64900
X277482Y54100
X291382Y54100
X299282Y64900
X297482Y41400
X285882Y34200
X292682Y21700
X257382Y59800
X217982Y77100
X200782Y70300
X199882Y93800
X227582Y114900
X223582Y120800
X213182Y120200
X214282Y138100
X223782Y144000
X220382Y161900
X210782Y161600
X204482Y169900
X192882Y170200
X195982Y161600
X188882Y149600
X185282Y140900
X184982Y136000
X178982Y149200
X173182Y147600
X157782Y143200
X157082Y148800
X157282Y138100
X162182Y135900
X170082Y128400
X195582Y125300
X236882Y121900
X265282Y115400
X278282Y121600
X290882Y102500
X297582Y104100
X328682Y113300
X352282Y131300
X352282Y136500
X352282Y141700
X360082Y141700
X359982Y136600
X359982Y131400
X373082Y148600
X385682Y142400
X386382Y154000
X392482Y164500
X358082Y187100
X383782Y213100
X396582Y226000
X383582Y232300
X374082Y237500
X362282Y231700
X354482Y231700
X354482Y226500
X354482Y221300
X362282Y221300
X362282Y226500
X341182Y223700
X313782Y204700
X306582Y214700
X290882Y208100
X275782Y179800
X258082Y182200
X244882Y189900
X240782Y174600
X223182Y197400
X217682Y201600
X210182Y197200
X204282Y183600
X198482Y185900
X192882Y183800
X187682Y186300
X182382Y183800
X177182Y185800
X168882Y183900
X160682Y185200
X154182Y184500
X153382Y178500
X156982Y171200
X163482Y161100
X172482Y163400
X183082Y170000
X160682Y198000
X151082Y208700
X156882Y211300
X168282Y213100
X196282Y231900
X197682Y224600
X207282Y224700
X222482Y224800
X219082Y213000
X245482Y211400
X245482Y228900
X231382Y268800
X225482Y273000
X221282Y290700
X198182Y286700
X198182Y309900
X157782Y311700
X142182Y311600
X130082Y311800
X116582Y302700
X116982Y283600
X123582Y283300
X120882Y276700
X117482Y263100
X112582Y264300
X120082Y250500
X133082Y263000
X117082Y237400
X131282Y226500
X138582Y230800
X129482Y218700
X123482Y222900
X121282Y210500
X133982Y205000
X135082Y193800
X128582Y188100
X110582Y186900
X126282Y165900
X139482Y163900
X140982Y152200
X127282Y147100
X115182Y145500
X122182Y132400
X108182Y122400
X94182Y120300
X78682Y121600
X87482Y148600
X63782Y163800
X75982Y182000
X80382Y187100
X57682Y202200
X73582Y210000
X96782Y210000
X93782Y237400
X79482Y237300
X85082Y254700
X44182Y218700
X38582Y222900
X29382Y227200
X11782Y209600
X25382Y206300
X36382Y196400
X20482Y191800
X46382Y141200
X16482Y136200
X22082Y254800
X34282Y257800
X245782Y276600
X251182Y286800
X274282Y275300
X291582Y273200
X283582Y290400
X278582Y304000
X291782Y308900
X316082Y270400
X322382Y270400
X371082Y281000
X376482Y300800
X394282Y298500
X396182Y248500
X391582Y242600
X388182Y248500
X323382Y173500
X315682Y173500
X306582Y144300
X277382Y145200
X267082Y157200
X338682Y134900
X381982Y125100
X345582Y54300
T02
X286456Y323732
X254960Y323732
T03
X332882Y294700
X362882Y294700
X325782Y196800
X295782Y196800
T04
X115472Y31000
X101693Y31000
T05
X97182Y139000
X97182Y149000
X107182Y149000
X107182Y139000
X107182Y159000
X97182Y159000
X97182Y169000
X97182Y179000
X107182Y179000
X107182Y169000
T06
X345778Y81600
X357982Y100498
X369793Y81600
T07
X71575Y171653
X16456Y285826
T08
X27782Y29000
X377582Y31700
X377382Y349300
X29282Y349100
T09
X222382Y21600
X222282Y21400
X272282Y21400
X272382Y21600
M30
