G75*
%MOIN*%
%OFA0B0*%
%FSLAX25Y25*%
%IPPOS*%
%LPD*%
%AMOC8*
5,1,8,0,0,1.08239X$1,22.5*
%
%ADD10R,0.04331X0.07087*%
%ADD11R,0.05906X0.05118*%
%ADD12R,0.07087X0.06299*%
%ADD13R,0.05118X0.05906*%
%ADD14R,0.04134X0.05118*%
%ADD15R,0.03937X0.04724*%
%ADD16R,0.03937X0.03937*%
%ADD17C,0.05200*%
%ADD18R,0.03937X0.04331*%
%ADD19R,0.04331X0.03937*%
%ADD20R,0.07874X0.16535*%
%ADD21R,0.04724X0.08661*%
%ADD22C,0.05600*%
%ADD23OC8,0.05600*%
%ADD24C,0.07874*%
%ADD25R,0.02400X0.18100*%
%ADD26R,0.09800X0.15400*%
%ADD27R,0.03562X0.03562*%
%ADD28C,0.03200*%
%ADD29C,0.02400*%
%ADD30C,0.04000*%
%ADD31C,0.01200*%
%ADD32C,0.01000*%
%ADD33C,0.01600*%
%ADD34C,0.06600*%
%ADD35C,0.05000*%
D10*
X0162180Y0176400D03*
X0174385Y0176400D03*
D11*
X0182382Y0177540D03*
X0182382Y0170060D03*
X0192882Y0170060D03*
X0192882Y0177540D03*
X0204382Y0177440D03*
X0204382Y0169960D03*
X0215982Y0180660D03*
X0215982Y0188140D03*
X0198682Y0189760D03*
X0198682Y0197240D03*
X0187682Y0197240D03*
X0187682Y0189760D03*
X0177282Y0189860D03*
X0177282Y0197340D03*
X0168882Y0197340D03*
X0168882Y0189860D03*
X0160582Y0189860D03*
X0160582Y0197340D03*
X0154482Y0178040D03*
X0154482Y0170560D03*
X0193082Y0138540D03*
X0193082Y0131060D03*
X0237182Y0122040D03*
X0237182Y0114560D03*
X0245982Y0114560D03*
X0245982Y0122040D03*
X0182782Y0068740D03*
X0182782Y0061260D03*
X0173682Y0061260D03*
X0173682Y0068740D03*
X0164582Y0068740D03*
X0164582Y0061260D03*
X0155182Y0061360D03*
X0155182Y0068840D03*
X0192882Y0224560D03*
X0192882Y0232040D03*
D12*
X0118482Y0157312D03*
X0118482Y0146288D03*
D13*
X0127242Y0146800D03*
X0134723Y0146800D03*
X0134723Y0138600D03*
X0127242Y0138600D03*
X0127342Y0130300D03*
X0134823Y0130300D03*
X0145442Y0158500D03*
X0152923Y0158500D03*
X0176642Y0121100D03*
X0184123Y0121100D03*
X0201842Y0085800D03*
X0209323Y0085800D03*
X0209323Y0077700D03*
X0201842Y0077700D03*
X0202042Y0064100D03*
X0209523Y0064100D03*
X0209523Y0055200D03*
X0202042Y0055200D03*
X0257642Y0117900D03*
X0265123Y0117900D03*
X0265023Y0127200D03*
X0257542Y0127200D03*
X0164423Y0215400D03*
X0156942Y0215400D03*
X0211442Y0224700D03*
X0218923Y0224700D03*
X0278542Y0307500D03*
X0286023Y0307500D03*
X0032123Y0254900D03*
X0024642Y0254900D03*
D14*
X0126241Y0165928D03*
X0133524Y0165928D03*
X0133524Y0156872D03*
X0126241Y0156872D03*
D15*
X0151482Y0185569D03*
X0151482Y0194231D03*
X0170282Y0109431D03*
X0170282Y0100769D03*
D16*
X0185982Y0093700D03*
X0193856Y0093700D03*
D17*
X0293182Y0196800D02*
X0298382Y0196800D01*
X0323182Y0196800D02*
X0328382Y0196800D01*
X0330282Y0294700D02*
X0335482Y0294700D01*
X0360282Y0294700D02*
X0365482Y0294700D01*
D18*
X0356382Y0285046D03*
X0356382Y0278354D03*
X0355482Y0193846D03*
X0355482Y0187154D03*
D19*
X0123629Y0286600D03*
X0116936Y0286600D03*
D20*
X0138198Y0021384D03*
X0190167Y0021384D03*
D21*
X0175993Y0043353D03*
X0168119Y0043353D03*
X0160245Y0043353D03*
X0152371Y0043353D03*
D22*
X0107182Y0139000D03*
D23*
X0097182Y0139000D03*
X0097182Y0149000D03*
X0107182Y0149000D03*
X0107182Y0159000D03*
X0097182Y0159000D03*
X0097182Y0169000D03*
X0097182Y0179000D03*
X0107182Y0179000D03*
X0107182Y0169000D03*
D24*
X0345778Y0085537D02*
X0345778Y0077663D01*
X0369793Y0077663D02*
X0369793Y0085537D01*
X0361919Y0100498D02*
X0354045Y0100498D01*
D25*
X0272582Y0100100D03*
X0265382Y0100100D03*
X0261382Y0100100D03*
X0257382Y0100100D03*
X0253382Y0100100D03*
X0249382Y0100100D03*
X0245382Y0100100D03*
X0241382Y0100100D03*
X0237382Y0100100D03*
X0233382Y0100100D03*
X0229382Y0100100D03*
X0222182Y0100100D03*
D26*
X0209882Y0021600D03*
X0284882Y0021600D03*
D27*
X0057782Y0028300D03*
X0112182Y0072200D03*
X0112182Y0088400D03*
X0136182Y0108300D03*
X0147582Y0115800D03*
X0150082Y0108700D03*
X0160482Y0108700D03*
X0171282Y0115500D03*
X0182882Y0107700D03*
X0180582Y0100600D03*
X0185182Y0084600D03*
X0173782Y0075000D03*
X0155082Y0082400D03*
X0163882Y0050800D03*
X0176282Y0034100D03*
X0167982Y0029500D03*
X0160082Y0028900D03*
X0201382Y0021700D03*
X0218382Y0039700D03*
X0233882Y0069500D03*
X0241382Y0078800D03*
X0247882Y0087900D03*
X0265882Y0084400D03*
X0277982Y0073700D03*
X0277382Y0064900D03*
X0277482Y0054100D03*
X0291382Y0054100D03*
X0299282Y0064900D03*
X0297482Y0041400D03*
X0285882Y0034200D03*
X0292682Y0021700D03*
X0257382Y0059800D03*
X0217982Y0077100D03*
X0200782Y0070300D03*
X0199882Y0093800D03*
X0227582Y0114900D03*
X0223582Y0120800D03*
X0213182Y0120200D03*
X0214282Y0138100D03*
X0223782Y0144000D03*
X0220382Y0161900D03*
X0210782Y0161600D03*
X0204482Y0169900D03*
X0192882Y0170200D03*
X0195982Y0161600D03*
X0188882Y0149600D03*
X0185282Y0140900D03*
X0184982Y0136000D03*
X0178982Y0149200D03*
X0173182Y0147600D03*
X0157782Y0143200D03*
X0157082Y0148800D03*
X0157282Y0138100D03*
X0162182Y0135900D03*
X0170082Y0128400D03*
X0195582Y0125300D03*
X0236882Y0121900D03*
X0265282Y0115400D03*
X0278282Y0121600D03*
X0290882Y0102500D03*
X0297582Y0104100D03*
X0328682Y0113300D03*
X0352282Y0131300D03*
X0352282Y0136500D03*
X0352282Y0141700D03*
X0360082Y0141700D03*
X0359982Y0136600D03*
X0359982Y0131400D03*
X0373082Y0148600D03*
X0385682Y0142400D03*
X0386382Y0154000D03*
X0392482Y0164500D03*
X0358082Y0187100D03*
X0383782Y0213100D03*
X0396582Y0226000D03*
X0383582Y0232300D03*
X0374082Y0237500D03*
X0362282Y0231700D03*
X0354482Y0231700D03*
X0354482Y0226500D03*
X0354482Y0221300D03*
X0362282Y0221300D03*
X0362282Y0226500D03*
X0341182Y0223700D03*
X0313782Y0204700D03*
X0306582Y0214700D03*
X0290882Y0208100D03*
X0275782Y0179800D03*
X0258082Y0182200D03*
X0244882Y0189900D03*
X0240782Y0174600D03*
X0223182Y0197400D03*
X0217682Y0201600D03*
X0210182Y0197200D03*
X0204282Y0183600D03*
X0198482Y0185900D03*
X0192882Y0183800D03*
X0187682Y0186300D03*
X0182382Y0183800D03*
X0177182Y0185800D03*
X0168882Y0183900D03*
X0160682Y0185200D03*
X0154182Y0184500D03*
X0153382Y0178500D03*
X0156982Y0171200D03*
X0163482Y0161100D03*
X0172482Y0163400D03*
X0183082Y0170000D03*
X0160682Y0198000D03*
X0151082Y0208700D03*
X0156882Y0211300D03*
X0168282Y0213100D03*
X0196282Y0231900D03*
X0197682Y0224600D03*
X0207282Y0224700D03*
X0222482Y0224800D03*
X0219082Y0213000D03*
X0245482Y0211400D03*
X0245482Y0228900D03*
X0231382Y0268800D03*
X0225482Y0273000D03*
X0221282Y0290700D03*
X0198182Y0286700D03*
X0198182Y0309900D03*
X0157782Y0311700D03*
X0142182Y0311600D03*
X0130082Y0311800D03*
X0116582Y0302700D03*
X0116982Y0283600D03*
X0123582Y0283300D03*
X0120882Y0276700D03*
X0117482Y0263100D03*
X0112582Y0264300D03*
X0120082Y0250500D03*
X0133082Y0263000D03*
X0117082Y0237400D03*
X0131282Y0226500D03*
X0138582Y0230800D03*
X0129482Y0218700D03*
X0123482Y0222900D03*
X0121282Y0210500D03*
X0133982Y0205000D03*
X0135082Y0193800D03*
X0128582Y0188100D03*
X0110582Y0186900D03*
X0126282Y0165900D03*
X0139482Y0163900D03*
X0140982Y0152200D03*
X0127282Y0147100D03*
X0115182Y0145500D03*
X0122182Y0132400D03*
X0108182Y0122400D03*
X0094182Y0120300D03*
X0078682Y0121600D03*
X0087482Y0148600D03*
X0063782Y0163800D03*
X0075982Y0182000D03*
X0080382Y0187100D03*
X0057682Y0202200D03*
X0073582Y0210000D03*
X0096782Y0210000D03*
X0093782Y0237400D03*
X0079482Y0237300D03*
X0085082Y0254700D03*
X0044182Y0218700D03*
X0038582Y0222900D03*
X0029382Y0227200D03*
X0011782Y0209600D03*
X0025382Y0206300D03*
X0036382Y0196400D03*
X0020482Y0191800D03*
X0046382Y0141200D03*
X0016482Y0136200D03*
X0022082Y0254800D03*
X0034282Y0257800D03*
X0245782Y0276600D03*
X0251182Y0286800D03*
X0274282Y0275300D03*
X0291582Y0273200D03*
X0283582Y0290400D03*
X0278582Y0304000D03*
X0291782Y0308900D03*
X0316082Y0270400D03*
X0322382Y0270400D03*
X0371082Y0281000D03*
X0376482Y0300800D03*
X0394282Y0298500D03*
X0396182Y0248500D03*
X0391582Y0242600D03*
X0388182Y0248500D03*
X0323382Y0173500D03*
X0315682Y0173500D03*
X0306582Y0144300D03*
X0277382Y0145200D03*
X0267082Y0157200D03*
X0338682Y0134900D03*
X0381982Y0125100D03*
X0345582Y0054300D03*
D28*
X0328682Y0113300D02*
X0329582Y0114200D01*
X0388482Y0114200D01*
X0392482Y0118200D01*
X0392482Y0145400D01*
X0389282Y0148600D01*
X0373082Y0148600D01*
X0385682Y0142400D02*
X0385682Y0142100D01*
X0386382Y0141400D01*
X0386382Y0141300D01*
X0387482Y0140200D01*
X0387482Y0121700D01*
X0385182Y0119400D01*
X0315582Y0119400D01*
X0315582Y0172800D01*
X0315682Y0173500D01*
X0323382Y0173500D02*
X0323382Y0124100D01*
X0323482Y0124000D01*
X0380782Y0124000D01*
X0381882Y0125100D01*
X0381982Y0125100D01*
X0349182Y0157100D02*
X0349182Y0191800D01*
X0348482Y0191800D01*
X0342482Y0197800D01*
X0326782Y0197800D01*
X0325782Y0196800D01*
X0314182Y0204300D02*
X0313782Y0204700D01*
X0314182Y0204300D02*
X0389882Y0204300D01*
X0391782Y0207300D01*
X0391882Y0235900D01*
X0390782Y0237200D01*
X0374282Y0237200D01*
X0374082Y0237600D01*
X0374082Y0237500D01*
X0383582Y0232300D02*
X0387482Y0232300D01*
X0387382Y0209200D01*
X0386882Y0209000D01*
X0316082Y0209000D01*
X0316082Y0270400D01*
X0322382Y0270400D02*
X0322382Y0214300D01*
X0382382Y0214300D01*
X0383582Y0213100D01*
X0383782Y0213100D01*
X0396582Y0226000D02*
X0396582Y0240200D01*
X0394682Y0242600D01*
X0391582Y0242600D01*
X0388182Y0248500D02*
X0396182Y0248500D01*
X0364982Y0281000D02*
X0362282Y0278300D01*
X0356436Y0278300D01*
X0356382Y0278354D01*
X0351782Y0284000D02*
X0352682Y0284900D01*
X0356236Y0284900D01*
X0356382Y0285046D01*
X0356482Y0285146D01*
X0356482Y0290700D01*
X0360482Y0294700D01*
X0362882Y0294700D01*
X0364982Y0281000D02*
X0371082Y0281000D01*
X0351782Y0284000D02*
X0351782Y0248800D01*
X0341182Y0238200D01*
X0341182Y0223700D01*
X0351082Y0193700D02*
X0349182Y0191800D01*
X0351082Y0193700D02*
X0355336Y0193700D01*
X0355482Y0193846D01*
X0349182Y0157100D02*
X0338682Y0146600D01*
X0338682Y0134900D01*
X0275782Y0179800D02*
X0260482Y0179800D01*
X0258082Y0182200D01*
X0245482Y0211400D02*
X0245482Y0228900D01*
X0024642Y0254900D02*
X0022182Y0254900D01*
X0022082Y0254800D01*
D29*
X0156882Y0215340D02*
X0156882Y0211300D01*
X0156882Y0215340D02*
X0156942Y0215400D01*
X0182382Y0183800D02*
X0182382Y0181500D01*
X0183782Y0180100D01*
X0192582Y0180100D01*
X0192882Y0179800D01*
X0194282Y0180300D02*
X0204382Y0180300D01*
X0207223Y0180660D02*
X0204282Y0183600D01*
X0207223Y0180660D02*
X0215982Y0180660D01*
X0215982Y0188140D02*
X0214842Y0188140D01*
X0213382Y0189600D01*
X0198842Y0189600D01*
X0198682Y0189760D01*
X0192882Y0183800D02*
X0192882Y0181700D01*
X0194282Y0180300D01*
X0188882Y0149600D02*
X0188482Y0149200D01*
X0178982Y0149200D01*
X0170282Y0109431D02*
X0170313Y0107700D01*
X0182882Y0107700D01*
X0237182Y0114560D02*
X0245982Y0114560D01*
X0237382Y0114360D02*
X0237182Y0114560D01*
X0237382Y0114360D02*
X0237382Y0100100D01*
X0236882Y0121900D02*
X0237023Y0122040D01*
X0237182Y0122040D01*
X0167882Y0047800D02*
X0167882Y0043590D01*
X0168119Y0043353D01*
X0219082Y0213000D02*
X0219082Y0224540D01*
X0218923Y0224700D01*
X0218923Y0229160D01*
X0216282Y0231800D01*
X0196382Y0231800D01*
X0196282Y0231900D01*
X0278582Y0304000D02*
X0278582Y0307460D01*
X0278542Y0307500D01*
X0286023Y0307500D02*
X0290382Y0307500D01*
X0291782Y0308900D01*
X0376482Y0300800D02*
X0378782Y0298500D01*
X0394282Y0298500D01*
D30*
X0290882Y0208100D02*
X0290882Y0206300D01*
X0284082Y0199500D01*
X0284082Y0068400D01*
X0284082Y0036000D01*
X0285882Y0034200D01*
X0176642Y0120860D02*
X0171282Y0115500D01*
X0176642Y0120860D02*
X0176642Y0121100D01*
X0094182Y0120300D02*
X0092882Y0121600D01*
X0078682Y0121600D01*
X0160582Y0197340D02*
X0168882Y0197340D01*
X0177282Y0197340D01*
X0187582Y0197340D01*
X0187682Y0197240D01*
X0205542Y0197240D01*
X0210182Y0197200D01*
X0198682Y0197240D02*
X0187682Y0197240D01*
X0192882Y0224560D02*
X0197642Y0224560D01*
X0197682Y0224600D01*
X0207282Y0224700D02*
X0211442Y0224700D01*
D31*
X0218923Y0224700D02*
X0219023Y0224800D01*
X0222482Y0224800D01*
X0215982Y0205200D02*
X0141182Y0205200D01*
X0137482Y0201500D01*
X0058382Y0201500D01*
X0057682Y0202200D01*
X0058282Y0201600D01*
X0057682Y0202200D02*
X0058982Y0200900D01*
X0063382Y0204600D02*
X0133582Y0204600D01*
X0133982Y0205000D01*
X0137782Y0198500D02*
X0038482Y0198500D01*
X0036382Y0196400D01*
X0036382Y0196600D01*
X0037682Y0197900D01*
X0039982Y0193800D02*
X0038682Y0192500D01*
X0021182Y0192500D01*
X0020482Y0191800D01*
X0025382Y0206300D02*
X0061682Y0206300D01*
X0063382Y0204600D01*
X0073582Y0210000D02*
X0096782Y0210000D01*
X0116282Y0215500D02*
X0121282Y0210500D01*
X0116282Y0215500D02*
X0051082Y0215500D01*
X0046082Y0210500D01*
X0012682Y0210500D01*
X0011782Y0209600D01*
X0029382Y0227200D02*
X0030082Y0226500D01*
X0131282Y0226500D01*
X0136782Y0232600D02*
X0138582Y0230800D01*
X0136782Y0232600D02*
X0113582Y0232600D01*
X0112582Y0233600D01*
X0112582Y0264300D01*
X0116282Y0264300D02*
X0116282Y0238200D01*
X0117082Y0237400D01*
X0120082Y0250500D02*
X0120882Y0251300D01*
X0120882Y0276700D01*
X0123582Y0283300D02*
X0123582Y0286554D01*
X0123629Y0286600D01*
X0116982Y0286554D02*
X0116982Y0283600D01*
X0116982Y0286554D02*
X0116936Y0286600D01*
X0116582Y0302700D02*
X0133082Y0286200D01*
X0133082Y0263000D01*
X0117582Y0264300D02*
X0116282Y0264300D01*
X0117582Y0264300D02*
X0117482Y0263100D01*
X0093782Y0237400D02*
X0079582Y0237400D01*
X0079482Y0237300D01*
X0044182Y0218700D02*
X0129482Y0218700D01*
X0123482Y0222900D02*
X0038582Y0222900D01*
X0039982Y0193800D02*
X0135082Y0193800D01*
X0129482Y0187200D02*
X0141082Y0187200D01*
X0150242Y0178040D01*
X0152923Y0178040D01*
X0153382Y0178500D01*
X0152923Y0178040D02*
X0154482Y0178040D01*
X0149682Y0172900D02*
X0144082Y0178500D01*
X0115582Y0178500D01*
X0111082Y0174000D01*
X0084382Y0174000D01*
X0074382Y0164000D01*
X0063982Y0164000D01*
X0063782Y0163800D01*
X0075982Y0182000D02*
X0080382Y0179000D01*
X0097182Y0179000D01*
X0110582Y0186900D02*
X0080582Y0186900D01*
X0080382Y0187100D01*
X0097182Y0159000D02*
X0102282Y0153900D01*
X0110782Y0153900D01*
X0113082Y0156200D01*
X0113082Y0170400D01*
X0116482Y0173800D01*
X0142582Y0173800D01*
X0145082Y0171300D01*
X0145632Y0170750D01*
X0146982Y0169400D01*
X0146982Y0165300D01*
X0148582Y0163700D01*
X0148782Y0163700D01*
X0148882Y0163600D01*
X0159582Y0163600D01*
X0160882Y0164900D01*
X0166282Y0164900D01*
X0168182Y0163000D01*
X0172082Y0163000D01*
X0172482Y0163400D01*
X0168282Y0166800D02*
X0167382Y0167700D01*
X0159782Y0167700D01*
X0158282Y0166200D01*
X0150582Y0166200D01*
X0149682Y0167100D01*
X0149682Y0172900D01*
X0154482Y0170560D02*
X0157542Y0170300D01*
X0182142Y0170300D01*
X0182382Y0170060D01*
X0182323Y0170000D01*
X0183082Y0170000D01*
X0178482Y0165700D02*
X0216582Y0165700D01*
X0220382Y0161900D01*
X0210782Y0161600D02*
X0195982Y0161600D01*
X0192942Y0170000D02*
X0192882Y0170060D01*
X0192942Y0170000D02*
X0192882Y0170200D01*
X0192882Y0177540D02*
X0192882Y0179800D01*
X0192882Y0183800D01*
X0198482Y0185900D02*
X0198482Y0189560D01*
X0198682Y0189760D01*
X0204282Y0183600D02*
X0204382Y0183500D01*
X0204382Y0180300D01*
X0204382Y0177440D01*
X0204382Y0169960D02*
X0204342Y0169860D01*
X0204482Y0169900D01*
X0187682Y0186300D02*
X0187682Y0189760D01*
X0182382Y0183800D02*
X0182382Y0177540D01*
X0174385Y0176400D02*
X0174385Y0183002D01*
X0177182Y0185800D01*
X0177182Y0189760D01*
X0177282Y0189860D01*
X0168882Y0189860D02*
X0168882Y0183900D01*
X0162180Y0177198D01*
X0162180Y0176400D01*
X0156982Y0171200D02*
X0157542Y0170300D01*
X0155523Y0161100D02*
X0152923Y0158500D01*
X0155523Y0161100D02*
X0163482Y0161100D01*
X0168282Y0166800D02*
X0177382Y0166800D01*
X0178482Y0165700D01*
X0173182Y0147600D02*
X0173182Y0138100D01*
X0175482Y0135800D01*
X0184782Y0135800D01*
X0184982Y0136000D01*
X0185882Y0140300D02*
X0185282Y0140900D01*
X0185882Y0140300D02*
X0188382Y0140300D01*
X0190142Y0138540D01*
X0193082Y0138540D01*
X0193082Y0131060D02*
X0193082Y0127800D01*
X0195582Y0125300D01*
X0213182Y0120200D02*
X0214282Y0121300D01*
X0214282Y0138100D01*
X0223782Y0144000D02*
X0223782Y0121000D01*
X0223582Y0120800D01*
X0226982Y0116700D02*
X0226982Y0115500D01*
X0227582Y0114900D01*
X0226982Y0116700D02*
X0227782Y0117500D01*
X0227782Y0127200D01*
X0240782Y0140200D01*
X0240782Y0174600D01*
X0244882Y0189900D02*
X0244882Y0130100D01*
X0246332Y0128650D01*
X0246332Y0125250D01*
X0246082Y0125000D01*
X0246082Y0122140D01*
X0245982Y0122040D01*
X0251382Y0125100D02*
X0253382Y0127100D01*
X0257442Y0127100D01*
X0257542Y0127200D01*
X0251382Y0125100D02*
X0251382Y0117400D01*
X0251582Y0117600D01*
X0257342Y0117600D01*
X0257642Y0117900D01*
X0251382Y0117400D02*
X0251382Y0113000D01*
X0253382Y0111000D01*
X0253382Y0100100D01*
X0261182Y0084500D02*
X0265882Y0084400D01*
X0261182Y0084500D02*
X0216082Y0084500D01*
X0216082Y0090100D01*
X0214682Y0091500D01*
X0205082Y0091500D01*
X0201842Y0088260D01*
X0201842Y0085800D01*
X0209323Y0085800D02*
X0209323Y0082700D01*
X0209723Y0082300D01*
X0241382Y0082300D01*
X0241382Y0078800D01*
X0233882Y0069500D02*
X0282982Y0069500D01*
X0284082Y0068400D01*
X0277982Y0073700D02*
X0276882Y0074800D01*
X0217982Y0074800D01*
X0215282Y0074800D01*
X0213582Y0073100D01*
X0209323Y0077700D02*
X0209323Y0082700D01*
X0201842Y0077700D02*
X0201782Y0077640D01*
X0203782Y0069000D02*
X0226682Y0069000D01*
X0231082Y0064600D01*
X0277082Y0064600D01*
X0277382Y0064900D01*
X0276882Y0074800D02*
X0276882Y0117700D01*
X0276482Y0117300D01*
X0275882Y0117300D01*
X0272982Y0120200D01*
X0272982Y0123000D01*
X0268782Y0127200D01*
X0265023Y0127200D01*
X0273182Y0132500D02*
X0250182Y0132500D01*
X0246332Y0128650D01*
X0265123Y0117900D02*
X0265282Y0117740D01*
X0265282Y0115400D01*
X0278282Y0121600D02*
X0278382Y0127300D01*
X0273182Y0132500D01*
X0278282Y0121900D02*
X0278282Y0121600D01*
X0290882Y0102500D02*
X0290882Y0054600D01*
X0291382Y0054100D01*
X0299282Y0064900D02*
X0297582Y0066600D01*
X0297582Y0104100D01*
X0257382Y0059800D02*
X0213823Y0059800D01*
X0209523Y0064100D01*
X0209523Y0055200D01*
X0202042Y0055200D02*
X0202042Y0050340D01*
X0205982Y0046400D01*
X0269782Y0046400D01*
X0277482Y0054100D01*
X0297482Y0041400D02*
X0298182Y0040700D01*
X0332482Y0040700D01*
X0345582Y0053800D01*
X0345582Y0054300D01*
X0386382Y0154000D02*
X0386382Y0158400D01*
X0392482Y0164500D01*
X0358082Y0187100D02*
X0358029Y0187154D01*
X0355482Y0187154D01*
X0287182Y0268800D02*
X0291582Y0273200D01*
X0287182Y0268800D02*
X0231382Y0268800D01*
X0225482Y0273000D02*
X0271982Y0273000D01*
X0274282Y0275300D01*
X0283582Y0290400D02*
X0283282Y0290700D01*
X0221282Y0290700D01*
X0245782Y0281400D02*
X0245782Y0276600D01*
X0245782Y0281400D02*
X0251182Y0286800D01*
X0196282Y0231900D02*
X0193023Y0231900D01*
X0192882Y0232040D01*
X0168282Y0213100D02*
X0166723Y0213100D01*
X0164423Y0215400D01*
X0164423Y0209040D01*
X0162982Y0207600D01*
X0152182Y0207600D01*
X0151082Y0208700D01*
X0142082Y0202800D02*
X0137782Y0198500D01*
X0142082Y0202800D02*
X0211582Y0202800D01*
X0213282Y0201100D01*
X0213282Y0200200D01*
X0215582Y0197900D01*
X0222682Y0197900D01*
X0223182Y0197400D01*
X0217682Y0201600D02*
X0217682Y0203500D01*
X0215982Y0205200D01*
X0160682Y0198000D02*
X0160582Y0197900D01*
X0160582Y0197340D01*
X0159342Y0191100D02*
X0155982Y0191100D01*
X0152852Y0194231D01*
X0151482Y0194231D01*
X0159342Y0191100D02*
X0160582Y0189860D01*
X0160682Y0189760D01*
X0160682Y0185200D01*
X0154182Y0184500D02*
X0153113Y0185569D01*
X0151482Y0185569D01*
X0133482Y0169100D02*
X0133482Y0165969D01*
X0133524Y0165928D01*
X0135552Y0163900D01*
X0139482Y0163900D01*
X0135152Y0158500D02*
X0133524Y0156872D01*
X0133524Y0159658D01*
X0131882Y0161300D01*
X0131782Y0161300D01*
X0131782Y0161400D01*
X0131582Y0161600D01*
X0130568Y0161600D01*
X0126241Y0165928D01*
X0126410Y0166128D01*
X0126282Y0165900D01*
X0122082Y0170800D02*
X0131782Y0170800D01*
X0133482Y0169100D01*
X0122082Y0170800D02*
X0118482Y0167200D01*
X0118482Y0157312D01*
X0126241Y0156872D02*
X0126241Y0153342D01*
X0127682Y0151900D01*
X0140682Y0151900D01*
X0140982Y0152200D01*
X0136682Y0146400D02*
X0139482Y0143600D01*
X0139482Y0140400D01*
X0141782Y0138100D01*
X0150182Y0138100D01*
X0150182Y0145400D01*
X0154482Y0145300D01*
X0157082Y0148800D01*
X0157782Y0143200D02*
X0162882Y0143200D01*
X0165482Y0140600D01*
X0165482Y0134400D01*
X0167282Y0132600D01*
X0171482Y0132600D01*
X0173482Y0130600D01*
X0173482Y0126100D01*
X0173382Y0126100D01*
X0167382Y0120100D01*
X0167382Y0116000D01*
X0167482Y0112000D01*
X0170282Y0109431D01*
X0170282Y0100769D02*
X0180513Y0100669D01*
X0180582Y0100600D01*
X0185982Y0093700D02*
X0169482Y0093700D01*
X0165182Y0098000D01*
X0165182Y0125100D01*
X0165282Y0125200D01*
X0159182Y0125200D01*
X0158782Y0124800D01*
X0121582Y0124800D01*
X0117782Y0128600D01*
X0117782Y0138700D01*
X0119482Y0140400D01*
X0127242Y0140400D01*
X0127242Y0138600D01*
X0127242Y0132400D02*
X0122182Y0132400D01*
X0127242Y0132400D02*
X0127342Y0130300D01*
X0134823Y0130300D02*
X0160782Y0130300D01*
X0162182Y0131700D01*
X0162182Y0135900D01*
X0157082Y0135700D02*
X0157082Y0137900D01*
X0157282Y0138100D01*
X0157082Y0135700D02*
X0156682Y0135300D01*
X0140482Y0135300D01*
X0135282Y0140500D01*
X0134723Y0138600D01*
X0136682Y0146400D02*
X0134723Y0146800D01*
X0127282Y0147100D02*
X0127242Y0146840D01*
X0127242Y0146800D01*
X0118482Y0146288D02*
X0115971Y0146288D01*
X0115182Y0145500D01*
X0097182Y0149000D02*
X0087882Y0149000D01*
X0087482Y0148600D01*
X0046382Y0141200D02*
X0021482Y0141200D01*
X0016482Y0136200D01*
X0128582Y0188100D02*
X0129482Y0187200D01*
X0135152Y0158500D02*
X0145442Y0158500D01*
X0170082Y0128400D02*
X0170082Y0126500D01*
X0168782Y0125200D01*
X0165282Y0125200D01*
X0193856Y0093700D02*
X0199782Y0093700D01*
X0199882Y0093800D01*
X0203782Y0069000D02*
X0202042Y0067260D01*
X0202042Y0064100D01*
X0034882Y0254700D02*
X0034282Y0255300D01*
X0034282Y0257800D01*
D32*
X0142182Y0311600D02*
X0142282Y0311700D01*
X0108182Y0122400D02*
X0114782Y0115800D01*
X0147582Y0115800D01*
X0150082Y0108700D02*
X0149682Y0108300D01*
X0136182Y0108300D01*
X0163882Y0050800D02*
X0164882Y0050800D01*
X0167882Y0047800D01*
X0200482Y0021800D02*
X0200582Y0021700D01*
X0201382Y0021700D01*
X0201482Y0021600D01*
X0209882Y0021600D01*
X0213582Y0073100D02*
X0205782Y0073100D01*
X0201782Y0077100D01*
X0201782Y0077640D01*
X0245382Y0087900D02*
X0245382Y0100100D01*
X0245382Y0087900D02*
X0247882Y0087900D01*
X0284882Y0021600D02*
X0292582Y0021600D01*
X0292682Y0021700D01*
D33*
X0218382Y0039700D02*
X0214682Y0036000D01*
X0185682Y0036000D01*
X0180682Y0031000D01*
X0180682Y0026300D01*
X0174282Y0019900D01*
X0154482Y0019900D01*
X0146982Y0027400D01*
X0146982Y0031200D01*
X0144182Y0034000D01*
X0133682Y0034000D01*
X0127982Y0028300D01*
X0127882Y0028300D01*
X0125982Y0026400D01*
X0059682Y0026400D01*
X0057782Y0028300D01*
X0112182Y0072200D02*
X0112182Y0088400D01*
X0147282Y0066700D02*
X0147282Y0036900D01*
X0151282Y0032900D01*
X0151282Y0029400D01*
X0156782Y0023900D01*
X0171882Y0023900D01*
X0176082Y0028100D01*
X0176082Y0033900D01*
X0176282Y0034100D01*
X0175993Y0043353D02*
X0175993Y0058949D01*
X0173682Y0061260D01*
X0182782Y0061260D01*
X0182782Y0068740D02*
X0187042Y0068740D01*
X0192382Y0063400D01*
X0192382Y0055900D01*
X0192982Y0055300D01*
X0201942Y0055300D01*
X0202042Y0055200D01*
X0202042Y0064100D02*
X0200782Y0065360D01*
X0200782Y0070300D01*
X0201782Y0077640D02*
X0192142Y0077640D01*
X0185182Y0084600D01*
X0192982Y0089100D02*
X0196282Y0085800D01*
X0201842Y0085800D01*
X0192982Y0089100D02*
X0167082Y0089100D01*
X0164582Y0086600D01*
X0164582Y0068740D01*
X0164582Y0061260D02*
X0155282Y0061260D01*
X0155182Y0061360D01*
X0152371Y0058549D01*
X0152371Y0043353D01*
X0160245Y0043353D02*
X0160245Y0029063D01*
X0160082Y0028900D01*
X0167982Y0029300D02*
X0167982Y0029500D01*
X0147282Y0066700D02*
X0149423Y0068840D01*
X0155182Y0068840D01*
X0155082Y0068940D01*
X0155082Y0082400D01*
X0173782Y0075000D02*
X0173782Y0068840D01*
X0173682Y0068740D01*
X0217982Y0074800D02*
X0217982Y0077100D01*
X0184123Y0121100D02*
X0184123Y0135140D01*
X0184982Y0136000D01*
X0188882Y0149600D02*
X0192782Y0149600D01*
X0194882Y0151700D01*
X0194882Y0160500D01*
X0195982Y0161600D01*
X0267082Y0157200D02*
X0267082Y0155500D01*
X0277382Y0145200D01*
X0355329Y0194000D02*
X0355482Y0193846D01*
X0034282Y0257800D02*
X0032123Y0255640D01*
X0032123Y0254900D01*
D34*
X0034882Y0254700D02*
X0085082Y0254700D01*
X0198182Y0286700D02*
X0198182Y0309900D01*
X0306582Y0214700D02*
X0306582Y0144300D01*
D35*
X0157882Y0311700D02*
X0157782Y0311700D01*
X0142282Y0311700D01*
M02*
